<?xml version="1.0" encoding="iso-8859-1"?>
<!-- Generator: Adobe Illustrator 19.0.0, SVG Export Plug-In . SVG Version: 6.00 Build 0)  -->
<svg version="1.1" id="Capa_1" xmlns="http://www.w3.org/2000/svg" xmlns:xlink="http://www.w3.org/1999/xlink" x="0px" y="0px"
	 viewBox="0 0 512 512" style="enable-background:new 0 0 512 512;" xml:space="preserve">
<path style="fill:#3594C7;" d="M489.902,245.756c-11.995-16.059-28.37-28.736-46.802-36.384
	c-3.773-21.385-14.386-40.976-30.478-55.957c-18.173-16.919-41.725-26.423-66.509-26.88c-12.253-22.052-29.758-40.782-51.083-54.556
	c-24.797-16.017-53.572-24.483-83.214-24.483c-84.682,0-153.575,68.894-153.575,153.575c0,4.347,0.186,8.714,0.555,13.064
	C22.734,233.388,0,270.727,0,312.295c0,61.426,49.974,111.333,111.4,111.333h289.2c61.426,0,111.4-49.907,111.4-111.334
	C512,288.076,504.358,265.111,489.902,245.756z"/>
<path style="fill:#16DCFA;" d="M255.999,53.956c-14.229-4.267-29.093-6.46-44.182-6.46c-84.682,0-153.575,68.894-153.575,153.575
	c0,4.347,0.186,8.714,0.555,13.064C22.734,233.388,0,270.727,0,312.295c0,61.426,49.974,111.333,111.4,111.333H256L255.999,53.956z"
	/>
<path style="fill:#7F748C;" d="M193.49,294.574c-5.857-5.857-15.355-5.858-21.213,0l-65.445,65.445
	c-5.858,5.857-5.858,15.355,0,21.213c2.929,2.929,6.768,4.394,10.606,4.394c3.838,0,7.678-1.465,10.606-4.394l65.445-65.445
	C199.348,309.928,199.348,300.432,193.49,294.574z"/>
<path style="fill:#BFBCD6;" d="M193.49,294.574c-5.857-5.857-15.355-5.858-21.213,0l-65.445,65.445
	c-5.858,5.857-5.858,15.355,0,21.213L193.49,294.574z"/>
<path style="fill:#FF504A;" d="M317.112,269.874c0-26.421-10.289-51.26-28.971-69.942s-43.522-28.971-69.942-28.97
	c-26.421,0-51.26,10.288-69.942,28.97s-28.971,43.522-28.97,69.942c0,26.42,10.288,51.259,28.97,69.942
	c18.682,18.682,43.522,28.971,69.942,28.971C272.74,368.786,317.112,324.414,317.112,269.874z"/>
<path style="fill:#FF7959;" d="M288.141,199.931c-18.682-18.682-43.522-28.971-69.942-28.97c-26.421,0-51.26,10.288-69.942,28.97
	s-28.971,43.522-28.97,69.942c0,26.42,10.288,51.259,28.97,69.942L288.141,199.931z"/>
<path style="fill:#574B5E;" d="M141.871,351.944l-5.75-5.751c-14.186-14.186-37.27-14.185-51.455,0l-48.234,48.233l-2.235,2.235
	c-14.186,14.186-14.186,37.269,0,51.455l5.75,5.751c7.094,7.092,16.41,10.638,25.728,10.638c9.316,0,18.635-3.546,25.728-10.639
	l30.368-30.369l20.1-20.1c6.872-6.872,10.657-16.009,10.657-25.728S148.743,358.815,141.871,351.944z"/>
<path style="fill:#8D7E96;" d="M138.996,349.068l-2.874-2.876c-14.186-14.186-37.27-14.185-51.455,0l-48.234,48.233l-2.235,2.235
	c-14.186,14.186-14.186,37.269,0,51.455l2.874,2.875L138.996,349.068z"/>
<path style="fill:#C6BDD6;" d="M287.113,269.874c-0.001-18.408-7.169-35.713-20.185-48.729
	c-13.016-13.016-30.322-20.184-48.729-20.184s-35.713,7.168-48.729,20.184s-20.184,30.322-20.184,48.729s7.168,35.713,20.184,48.729
	s30.322,20.184,48.729,20.185C256.198,338.786,287.112,307.872,287.113,269.874z"/>
<path style="fill:#F5F2FC;" d="M266.928,221.144c-13.016-13.016-30.322-20.184-48.729-20.184s-35.713,7.168-48.729,20.184
	s-20.184,30.322-20.184,48.729c0,18.407,7.168,35.713,20.184,48.729L266.928,221.144z"/>
<g>
</g>
<g>
</g>
<g>
</g>
<g>
</g>
<g>
</g>
<g>
</g>
<g>
</g>
<g>
</g>
<g>
</g>
<g>
</g>
<g>
</g>
<g>
</g>
<g>
</g>
<g>
</g>
<g>
</g>
</svg>
