<?xml version="1.0" encoding="UTF-8" standalone="no"?>
<!DOCTYPE svg PUBLIC "-//W3C//DTD SVG 1.1//EN" "http://www.w3.org/Graphics/SVG/1.1/DTD/svg11.dtd">
<svg version="1.1" xmlns="http://www.w3.org/2000/svg" xmlns:xlink="http://www.w3.org/1999/xlink" preserveAspectRatio="xMidYMid meet" viewBox="205.79166666666606 165.94444444444457 230.41666666666788 240.13888888888874" width="226.42" height="236.14"><defs><path d="M404.91 344.05C404.91 341.1 404.91 283.54 365.28 264.35C334.15 249.59 334.15 212.7 334.15 211.22C334.15 208.27 334.15 193.51 334.15 166.94L305.85 166.94C305.85 193.51 305.85 208.27 305.85 211.22C305.85 212.7 305.85 249.59 274.72 264.35C235.09 283.54 235.09 341.1 235.09 344.05C235.09 345.03 235.09 349.95 235.09 358.81L206.79 358.81L249.24 403.08L291.7 358.81L263.4 358.81C263.4 349.95 263.4 345.03 263.4 344.05C263.4 344.05 263.4 302.72 287.45 290.92C303.02 283.54 312.92 271.73 320 261.4C327.08 273.21 336.98 283.54 352.55 290.92C376.6 302.72 376.6 344.05 376.6 344.05C376.6 345.03 376.6 349.95 376.6 358.81L348.3 358.81L390.76 403.08L433.21 358.81L404.91 358.81C404.91 349.95 404.91 345.03 404.91 344.05Z" id="a5YwQq40rH"></path></defs><g><g><use xlink:href="#a5YwQq40rH" opacity="1" fill="#ffffff" fill-opacity="1"></use><g><use xlink:href="#a5YwQq40rH" opacity="1" fill-opacity="0" stroke="#000000" stroke-width="1" stroke-opacity="0"></use></g></g></g></svg>